<?xml version="1.0" standalone="no"?>
<!DOCTYPE svg PUBLIC "-//W3C//DTD SVG 20010904//EN"
 "http://www.w3.org/TR/2001/REC-SVG-20010904/DTD/svg10.dtd">
<svg version="1.0" xmlns="http://www.w3.org/2000/svg"
 width="500.000000pt" height="500.000000pt" viewBox="0 0 500.000000 500.000000"
 preserveAspectRatio="xMidYMid meet">
<metadata>
Created by potrace 1.14, written by Peter Selinger 2001-2017
</metadata>
<g transform="translate(0.000000,500.000000) scale(0.100000,-0.100000)"
fill="#000000" stroke="none">
<path d="M2325 4484 c-609 -57 -1151 -384 -1492 -898 -304 -459 -401 -1062
-257 -1596 149 -552 523 -1012 1030 -1268 189 -96 395 -162 584 -188 19 -2 64
-8 100 -13 36 -5 133 -9 215 -9 775 3 1460 436 1790 1132 87 184 135 330 170
521 24 125 29 467 10 598 -55 377 -198 705 -431 994 -410 506 -1075 788 -1719
727z m302 -259 c142 -84 276 -280 383 -563 24 -62 41 -114 39 -117 -3 -2 -34
0 -69 6 -227 34 -764 33 -969 -2 -30 -5 -56 -7 -59 -5 -16 16 127 340 201 454
59 91 171 202 239 237 71 36 162 32 235 -10z m-627 -40 c0 -2 -25 -45 -55 -95
-30 -50 -55 -92 -55 -94 0 -2 -22 -50 -49 -107 -27 -57 -70 -167 -96 -244 -27
-77 -51 -143 -54 -147 -3 -4 -72 -27 -152 -52 -194 -60 -360 -131 -494 -212
-177 -107 -195 -116 -195 -104 0 14 89 193 141 281 161 277 436 526 759 687
114 56 250 104 250 87z m1097 -24 c366 -135 695 -400 891 -717 53 -85 162
-297 162 -314 0 -15 -28 -1 -107 52 -154 103 -337 186 -592 268 l-143 46 -52
149 c-61 174 -129 323 -203 448 -29 48 -53 90 -53 92 0 10 21 4 97 -24z m-207
-826 c117 -17 214 -35 222 -43 9 -9 40 -175 53 -281 4 -30 8 -62 10 -72 25
-128 26 -737 1 -874 -2 -16 -8 -50 -11 -75 -20 -153 -45 -279 -57 -286 -12 -8
-155 -30 -253 -41 -44 -4 -217 -8 -385 -7 -256 0 -327 4 -443 21 -76 12 -140
23 -143 26 -6 6 -11 29 -39 220 -35 234 -40 305 -39 607 1 273 6 337 50 620
23 151 21 147 57 154 201 36 317 44 627 41 168 -2 325 -6 350 -10z m-1256
-111 c-17 -108 -37 -258 -44 -324 -9 -87 -7 -799 2 -835 3 -11 9 -47 12 -80 9
-74 15 -117 26 -175 5 -25 7 -46 5 -48 -3 -4 -143 44 -232 79 -328 130 -591
351 -648 543 -19 64 -19 168 0 232 62 211 342 431 730 575 124 46 152 52 149
33z m1837 -18 c139 -50 190 -71 281 -117 245 -123 431 -299 489 -464 89 -253
-105 -525 -516 -726 -100 -49 -331 -139 -355 -139 -4 0 1 53 11 118 29 187 34
277 34 617 0 387 -6 477 -50 723 -2 12 0 22 4 22 4 0 50 -15 102 -34z m-2351
-1480 c135 -70 293 -134 442 -181 64 -20 122 -42 128 -50 6 -7 26 -57 44 -111
61 -181 147 -372 230 -508 20 -33 34 -61 32 -64 -9 -9 -136 41 -261 102 -303
148 -545 360 -717 631 -55 86 -168 308 -168 329 0 11 24 0 82 -39 45 -30 130
-80 188 -109z m3024 132 c-14 -47 -118 -246 -168 -323 -131 -201 -328 -395
-539 -528 -124 -79 -417 -210 -434 -194 -2 3 16 36 40 73 82 127 156 292 226
506 18 53 39 102 48 109 8 8 56 25 107 40 221 64 474 177 623 278 48 33 92 61
96 61 5 0 5 -10 1 -22z m-2115 -412 c161 -28 694 -28 916 -1 55 7 102 11 103
9 6 -5 -50 -156 -92 -249 -160 -350 -368 -523 -543 -450 -108 46 -237 189
-326 364 -52 101 -137 307 -137 330 0 6 10 9 23 7 12 -3 37 -7 56 -10z"/>
</g>
</svg>
