<?xml version="1.0" standalone="no"?>
<!DOCTYPE svg PUBLIC "-//W3C//DTD SVG 20010904//EN"
 "http://www.w3.org/TR/2001/REC-SVG-20010904/DTD/svg10.dtd">
<svg version="1.0" xmlns="http://www.w3.org/2000/svg"
 width="292.000000pt" height="292.000000pt" viewBox="0 0 292.000000 292.000000"
 preserveAspectRatio="xMidYMid meet">
<metadata>
Created by potrace 1.14, written by Peter Selinger 2001-2017
</metadata>
<g transform="translate(0.000000,292.000000) scale(0.100000,-0.100000)"
fill="#000000" stroke="none">
<path d="M823 2552 l-613 -356 0 -736 0 -737 615 -356 c338 -196 623 -357 635
-357 11 0 297 161 635 357 l615 357 0 736 0 737 -615 356 c-342 199 -624 357
-637 356 -13 0 -299 -161 -635 -357z m832 -402 c81 -19 189 -69 255 -118 99
-74 195 -202 242 -322 141 -358 -42 -774 -405 -920 -355 -142 -745 4 -922 346
-90 174 -100 389 -28 579 76 202 241 356 459 426 128 42 245 44 399 9z"/>
<path d="M1351 1993 c-53 -54 -131 -185 -131 -220 0 -11 21 -13 108 -11 l107
3 0 139 c0 108 -3 140 -13 144 -8 2 -40 -22 -71 -55z"/>
<path d="M1552 1908 l3 -143 103 -3 c122 -3 120 -5 61 108 -38 74 -132 180
-159 180 -7 0 -10 -45 -8 -142z"/>
<path d="M1155 1978 c-49 -25 -205 -179 -205 -202 0 -13 12 -16 75 -16 53 0
75 4 75 13 0 6 24 60 53 120 29 59 50 107 47 107 -3 -1 -23 -10 -45 -22z"/>
<path d="M1829 1898 c20 -40 41 -88 48 -105 11 -32 13 -33 67 -33 31 0 56 3
56 6 0 33 -168 204 -200 204 -4 0 10 -33 29 -72z"/>
<path d="M882 1623 c-24 -55 -24 -282 0 -335 l17 -38 87 0 86 0 -8 58 c-11 72
-11 220 -1 295 l8 57 -86 0 -86 0 -17 -37z"/>
<path d="M1186 1651 c-23 -37 -24 -284 -1 -374 l7 -28 122 3 121 3 0 200 0
200 -122 3 c-67 1 -124 -2 -127 -7z"/>
<path d="M1554 1647 c-2 -7 -3 -98 -2 -202 l3 -190 120 0 120 0 14 95 c10 73
11 117 3 192 -5 53 -13 102 -17 107 -10 17 -234 15 -241 -2z"/>
<path d="M1917 1653 c-3 -4 0 -37 5 -73 9 -63 5 -216 -8 -293 l-7 -38 74 3 73
3 14 45 c19 61 19 251 1 310 l-15 45 -66 3 c-36 2 -68 -1 -71 -5z"/>
<path d="M950 1142 c0 -18 58 -88 115 -140 49 -45 155 -112 155 -98 0 3 -14
27 -30 54 -17 27 -44 80 -59 118 l-28 69 -76 3 c-43 2 -77 -1 -77 -6z"/>
<path d="M1230 1135 c0 -22 54 -129 90 -179 36 -49 100 -100 112 -88 5 5 7 69
6 143 l-3 134 -102 3 c-89 2 -103 0 -103 -13z"/>
<path d="M1550 1004 l0 -145 31 18 c41 23 114 121 150 200 16 35 29 65 29 68
0 3 -47 5 -105 5 l-105 0 0 -146z"/>
<path d="M1860 1093 c-12 -32 -35 -82 -51 -110 -17 -29 -27 -53 -24 -53 35 0
215 178 215 212 0 5 -27 8 -59 8 l-60 0 -21 -57z"/>
</g>
</svg>
